<svg xmlns="http://www.w3.org/2000/svg" xmlns:xlink="http://www.w3.org/1999/xlink" version="1.1" width="22.339622845213462" height="25.2641512217917" style="" xml:space="preserve"><rect id="backgroundrect" width="100%" height="100%" x="0" y="0" fill="none" stroke="none" class="" style=""/>
<g id="svg_1" class="">
	<path d="M11.112305635207315,0.2378999032924015 C5.062843680637532,0.2378999032924015 0.1413341795743931,4.086525239703895 0.1413341795743931,8.816644385820181 c0,4.55314572375829 9.954152439073981,15.190916317949286 10.377993476462617,15.641377083435875 l0.39555833668447393,0.42091313796264535 c0.04625899352460321,0.0494750972493939 0.1199218467710355,0.07839803920200658 0.19741964248582838,0.07839803920200658 c0.07869621523615578,0 0.15187970067404286,-0.028922941952612864 0.1986180620071909,-0.07839803920200658 l0.39531865278020134,-0.42091313796264535 c0.4240807212929079,-0.45046076548658964 10.377993476462617,-11.088231359677588 10.377993476462617,-15.641377083435875 C22.084235826457327,4.086525239703895 17.16192737904662,0.2378999032924015 11.112305635207315,0.2378999032924015 zM11.112305635207315,5.743753591887188 c2.1675414409714757,0 3.9300969783570907,1.3781813074698561 3.9300969783570907,3.072890793932993 c0,1.6938349266632737 -1.7626354320203723,3.072890793932993 -3.9300969783570907,3.072890793932993 c-2.166263126815356,0 -3.9300969783570907,-1.379055867269719 -3.9300969783570907,-3.072890793932993 C7.182208656850225,7.1219348993570435 8.945962613757198,5.743753591887188 11.112305635207315,5.743753591887188 z" fill="#006DF0" id="svg_2"/>
</g></svg>